<svg viewBox="0 0 720 320" xmlns="http://www.w3.org/2000/svg">
  <style>
    .b{fill:none;stroke:#111;stroke-width:1.5} .t{font:14px ui-sans-serif,system-ui}
    .s{font:12px ui-sans-serif,system-ui}
  </style>
  <defs><marker id="m" markerWidth="10" markerHeight="10" refX="7" refY="3" orient="auto">
    <path d="M0,0 L0,6 L9,3 z" fill="#111"/></marker></defs>
  <rect class="b" x="24" y="40" width="180" height="80" rx="8"/>
  <text class="t" x="114" y="75" text-anchor="middle">Vercel (Astro)</text>
  <text class="s" x="114" y="95" text-anchor="middle">Static site</text>
  <rect class="b" x="270" y="40" width="180" height="80" rx="8"/>
  <text class="t" x="360" y="75" text-anchor="middle">API Gateway (HTTP v2)</text>
  <text class="s" x="360" y="95" text-anchor="middle">CORS locked</text>
  <rect class="b" x="516" y="40" width="180" height="80" rx="8"/>
  <text class="t" x="606" y="75" text-anchor="middle">Lambda</text>
  <text class="s" x="606" y="95" text-anchor="middle">/health & evidence</text>
  <line x1="204" y1="80" x2="270" y2="80" stroke="#111" stroke-width="1.5" marker-end="url(#m)"/>
  <line x1="450" y1="80" x2="516" y2="80" stroke="#111" stroke-width="1.5" marker-end="url(#m)"/>
  <rect class="b" x="516" y="200" width="180" height="80" rx="8"/>
  <text class="t" x="606" y="235" text-anchor="middle">S3 (Evidence)</text>
  <text class="s" x="606" y="255" text-anchor="middle">Versioned + lifecycle</text>
  <line x1="606" y1="120" x2="606" y2="200" stroke="#111" stroke-width="1.5" marker-end="url(#m)"/>
  <rect class="b" x="24" y="200" width="240" height="80" rx="8"/>
  <text class="t" x="144" y="235" text-anchor="middle">SSO-operated</text>
  <text class="s" x="144" y="255" text-anchor="middle">No long-lived keys</text>
</svg>
